<svg xmlns="http://www.w3.org/2000/svg" viewBox="0 0 800 520"><defs><style>.cls-1,.cls-18{fill:#fff;}.cls-2{fill:#bfbfbf;}.cls-3{fill:#acacac;}.cls-4{fill:#555;}.cls-5,.cls-7,.cls-9{fill:none;stroke-miterlimit:10;stroke-width:2px;}.cls-5{stroke:#6d0c8f;}.cls-6{fill:#6d0c8f;}.cls-7{stroke:#006cbf;}.cls-8{fill:#006cbf;}.cls-9{stroke:#30908f;}.cls-10{fill:#30908f;}.cls-11{fill:#bfe3ff;}.cls-12{font-size:10.36px;}.cls-12,.cls-19,.cls-22{fill:#303030;}.cls-12,.cls-18,.cls-19,.cls-22{font-family:Arial, Arial;}.cls-13{letter-spacing:-0.06em;}.cls-14{letter-spacing:-0.02em;}.cls-15{letter-spacing:0em;}.cls-16{letter-spacing:-0.06em;}.cls-17{letter-spacing:-0.02em;}.cls-18{font-size:16.83px;}.cls-19{font-size:12.95px;}.cls-20{letter-spacing:-0.06em;}.cls-21{letter-spacing:-0.02em;}.cls-22{font-size:16px;}.cls-23{fill:#646464;}.cls-24{fill:#7e7e7e;}.cls-25{fill:#878787;}.cls-26{fill:#dedede;}</style></defs><title>1-vetores-fase3-Smart-City-2PM</title><g id="Layer_3" data-name="Layer 3"><rect class="cls-1" width="800" height="520"/><polygon class="cls-2" points="288.18 150.66 288.18 69.1 319.25 60.04 319.25 161.02 288.18 150.66"/><polygon class="cls-3" points="319.25 161.02 343.85 146.78 343.85 74.28 319.25 60.04 319.25 161.02"/><polygon class="cls-3" points="303.61 64.6 303.61 155.62 288.18 150.66 288.18 69.1 303.61 64.6"/><ellipse class="cls-4" cx="303.07" cy="132.54" rx="1.94" ry="2.59"/><polygon class="cls-4" points="291.53 76.11 291.53 82.05 315.69 77.19 315.69 70.94 291.53 76.11"/><polygon class="cls-4" points="291.53 100.93 315.69 100.39 315.69 106.21 291.53 106.75 291.53 100.93"/><polygon class="cls-4" points="291.53 98.23 291.53 92.73 315.69 90.68 315.69 96.72 291.53 98.23"/><polygon class="cls-4" points="291.53 90.03 315.69 87.01 315.69 80.43 291.53 84.53 291.53 90.03"/><polygon class="cls-4" points="291.53 118.3 291.53 120.81 315.69 122.02 315.69 119.11 291.53 118.3"/><polygon class="cls-2" points="588.54 387.14 588.54 305.58 557.47 296.52 557.47 397.49 588.54 387.14"/><polygon class="cls-3" points="557.47 397.49 532.87 383.25 532.87 310.76 557.47 296.52 557.47 397.49"/><polygon class="cls-3" points="573.11 301.08 573.11 392.1 588.54 387.14 588.54 305.58 573.11 301.08"/><polygon class="cls-4" points="585.2 326.51 561.03 323.49 561.03 316.91 585.2 321 585.2 326.51"/><polygon class="cls-4" points="585.2 354.77 585.2 357.28 561.03 358.49 561.03 355.58 585.2 354.77"/><ellipse class="cls-4" cx="573.65" cy="369.01" rx="1.94" ry="2.59"/><polygon class="cls-4" points="585.2 312.59 585.2 318.52 561.03 313.67 561.03 307.41 585.2 312.59"/><polygon class="cls-4" points="585.2 337.4 561.03 336.86 561.03 342.69 585.2 343.23 585.2 337.4"/><polygon class="cls-4" points="585.2 334.71 585.2 329.2 561.03 327.15 561.03 333.2 585.2 334.71"/><polygon class="cls-2" points="495.31 142.89 495.31 61.34 526.38 52.27 526.38 153.25 495.31 142.89"/><polygon class="cls-3" points="526.38 153.25 550.98 139.01 550.98 66.51 526.38 52.27 526.38 153.25"/><polygon class="cls-3" points="510.74 56.84 510.74 147.86 495.31 142.89 495.31 61.34 510.74 56.84"/><polygon class="cls-4" points="498.66 82.27 522.82 79.24 522.82 72.66 498.66 76.76 498.66 82.27"/><polygon class="cls-4" points="498.66 110.53 498.66 113.04 522.82 114.25 522.82 111.34 498.66 110.53"/><ellipse class="cls-4" cx="510.2" cy="124.77" rx="1.94" ry="2.59"/><polygon class="cls-4" points="498.66 68.35 498.66 74.28 522.82 69.43 522.82 63.17 498.66 68.35"/><polygon class="cls-4" points="498.66 93.16 522.82 92.62 522.82 98.45 498.66 98.99 498.66 93.16"/><polygon class="cls-4" points="498.66 90.46 498.66 84.96 522.82 82.91 522.82 88.95 498.66 90.46"/><polygon class="cls-2" points="647.44 142.89 647.44 61.34 616.37 52.27 616.37 153.25 647.44 142.89"/><polygon class="cls-3" points="616.37 153.25 591.78 139.01 591.78 66.51 616.37 52.27 616.37 153.25"/><polygon class="cls-3" points="632.01 56.84 632.01 147.86 647.44 142.89 647.44 61.34 632.01 56.84"/><ellipse class="cls-4" cx="632.55" cy="124.77" rx="1.94" ry="2.59"/><polygon class="cls-4" points="644.1 68.35 644.1 74.28 619.93 69.43 619.93 63.17 644.1 68.35"/><polygon class="cls-4" points="644.1 93.16 619.93 92.62 619.93 98.45 644.1 98.99 644.1 93.16"/><polygon class="cls-4" points="644.1 90.46 644.1 84.96 619.93 82.91 619.93 88.95 644.1 90.46"/><polygon class="cls-4" points="644.1 82.27 619.93 79.24 619.93 72.66 644.1 76.76 644.1 82.27"/><polygon class="cls-4" points="644.1 110.53 644.1 113.04 619.93 114.25 619.93 111.34 644.1 110.53"/><rect class="cls-2" x="546.02" y="49.36" width="50.92" height="103.89"/><rect class="cls-3" x="546.02" y="49.36" width="25.46" height="103.89"/><rect class="cls-4" x="550.98" y="59.93" width="39.92" height="6.58"/><rect class="cls-4" x="550.98" y="70.13" width="39.92" height="6.58"/><rect class="cls-4" x="550.98" y="80.75" width="39.92" height="6.58"/><rect class="cls-4" x="550.98" y="91.38" width="39.92" height="6.58"/><rect class="cls-4" x="550.98" y="111.28" width="40.8" height="2.97"/><circle class="cls-4" cx="571.48" cy="127.18" r="3.92"/><line class="cls-5" x1="323.07" y1="158.8" x2="518.71" y2="349.15"/><polygon class="cls-6" points="515.09 351.19 522.82 353.15 520.65 345.48 515.09 351.19"/><line class="cls-5" x1="532.87" y1="361.35" x2="238.04" y2="361.35"/><polygon class="cls-6" points="239.21 357.36 232.3 361.35 239.21 365.34 239.21 357.36"/><line class="cls-7" x1="532.87" y1="340.05" x2="349.91" y2="162.8"/><polygon class="cls-8" points="353.53 160.75 345.79 158.8 347.98 166.48 353.53 160.75"/><line class="cls-7" x1="223.43" y1="379.25" x2="520.64" y2="379.25"/><polygon class="cls-8" points="519.48 383.24 526.38 379.25 519.48 375.26 519.48 383.24"/><line class="cls-9" x1="219.65" y1="340.05" x2="545.13" y2="165.56"/><polygon class="cls-10" points="545.99 169.63 550.19 162.85 542.22 162.6 545.99 169.63"/><rect class="cls-11" x="568.89" y="222.4" width="174.34" height="62.57" rx="5" ry="5"/><rect class="cls-11" x="78.24" y="213.34" width="166.57" height="58.69" rx="5" ry="5"/><rect class="cls-11" x="78.24" y="65.17" width="179.51" height="58.69" rx="5" ry="5"/><rect class="cls-11" x="531.35" y="427.19" width="202.82" height="65.99" rx="5" ry="5"/><rect class="cls-11" x="151.39" y="427.19" width="197.64" height="49.16" rx="5" ry="5"/><polygon class="cls-11" points="600.17 280.66 600.17 301.08 618.8 282.45 600.17 280.66"/><polygon class="cls-11" points="585.2 432.01 585.2 408.39 605.03 430.07 585.2 432.01"/><polygon class="cls-11" points="174.75 432.01 174.75 408.39 194.58 430.07 174.75 432.01"/><polygon class="cls-11" points="161.53 272.03 177.5 288.86 177.5 261.67 161.53 272.03"/><polygon class="cls-11" points="254.52 85.23 275.56 85.23 254.52 106.75 254.52 85.23"/><circle class="cls-6" cx="72.1" cy="65.11" r="15.32"/><circle class="cls-10" cx="72.1" cy="212.05" r="15.32"/><circle class="cls-8" cx="148.15" cy="425.9" r="15.32"/><circle class="cls-8" cx="527.25" cy="425.9" r="15.32"/><circle class="cls-6" cx="565.51" cy="223.91" r="15.32"/><text class="cls-12" transform="translate(585.2 244.63)">“Ótimo! Eu vou pegar isso<tspan x="0" y="12.43">por um tempo no caso de eu</tspan><tspan x="0" y="24.86">conseguir mais pedidos.”</tspan></text><text class="cls-12" transform="translate(545.17 445.23)">“O nome do domínio<tspan x="0" y="12.43">ww</tspan><tspan class="cls-13" x="14.96" y="12.43">w</tspan><tspan x="21.87" y="12.43">.howstu</tspan><tspan class="cls-14" x="57.56" y="12.43">f</tspan><tspan class="cls-15" x="60.25" y="12.43">fworkds.com não está</tspan><tspan x="0" y="24.86">no meu banco de dados ou cache.</tspan><tspan class="cls-16" x="0" y="37.28">V</tspan><tspan x="6.34" y="37.28">ou tentar outro servidor DNS.”</tspan></text><text class="cls-12" transform="translate(167.59 447.82)">“Eu preciso de direções para<tspan x="0" y="12.43">http://ww</tspan><tspan class="cls-16" x="40.87" y="12.43">w</tspan><tspan class="cls-15" x="47.77" y="12.43">.howstu</tspan><tspan class="cls-17" x="83.46" y="12.43">f</tspan><tspan class="cls-15" x="86.15" y="12.43">fworks.com”</tspan></text><text class="cls-12" transform="translate(94.66 232.33)">“Obrigado pelas direções!<tspan x="0" y="12.43">Agora vou encontrar mais</tspan><tspan x="0" y="24.86">informações!”</tspan></text><text class="cls-12" transform="translate(92.5 85.23)">Isto está no meu cache! Ele<tspan x="0" y="12.43">mapeia para este endereço</tspan><tspan x="0" y="24.86">IP: 70.42.251.42</tspan></text><text class="cls-18" transform="translate(559.74 229.31)">4</text><text class="cls-18" transform="translate(521.53 432.01)">2</text><text class="cls-18" transform="translate(143.3 432.01)">1</text><text class="cls-18" transform="translate(67.78 217.55)">5</text><text class="cls-18" transform="translate(66.49 72.23)">3</text><text class="cls-19" transform="translate(499.84 37.93)">ww<tspan class="cls-20" x="18.7" y="0">w</tspan><tspan x="27.33" y="0">.howstu</tspan><tspan class="cls-21" x="71.95" y="0">f</tspan><tspan x="75.31" y="0">fworks.com</tspan></text><text class="cls-22" transform="translate(356.15 110.11)">DNS<tspan x="0" y="19.2">Server</tspan></text><text class="cls-22" transform="translate(603.41 346.59)">DNS<tspan x="0" y="19.2">Server</tspan></text><rect class="cls-3" x="112.55" y="293.33" width="110.88" height="61.08"/><rect class="cls-23" x="120.56" y="354.41" width="94.86" height="3.76"/><polygon class="cls-3" points="112.72 358.17 222.56 358.17 233.91 398.08 102.06 398.08 112.72 358.17"/><rect class="cls-24" x="153.67" y="383.66" width="28.63" height="11.28"/><polygon class="cls-25" points="118.88 362.98 125.19 362.98 125.19 366.11 118.18 366.11 118.88 362.98"/><polygon class="cls-25" points="116.75 372.46 123.72 372.46 123.72 375.6 116.05 375.6 116.75 372.46"/><rect class="cls-25" x="127.49" y="362.98" width="5.64" height="2.61"/><rect class="cls-25" x="135.74" y="362.98" width="5.64" height="2.61"/><rect class="cls-25" x="143.99" y="362.98" width="5.64" height="2.61"/><rect class="cls-25" x="152.25" y="362.98" width="5.64" height="2.61"/><rect class="cls-25" x="160.5" y="362.98" width="5.64" height="2.61"/><rect class="cls-25" x="168.75" y="362.98" width="5.64" height="2.61"/><rect class="cls-25" x="177.01" y="362.98" width="5.64" height="2.61"/><rect class="cls-25" x="185.26" y="362.98" width="5.64" height="2.61"/><rect class="cls-25" x="193.51" y="362.98" width="5.64" height="2.61"/><rect class="cls-25" x="201.77" y="362.98" width="5.64" height="2.61"/><polygon class="cls-25" points="217.4 365.59 210.02 365.59 210.02 362.98 216.81 362.98 217.4 365.59"/><polygon class="cls-25" points="117.83 367.64 124.77 367.64 124.77 370.5 117.18 370.5 117.83 367.64"/><rect class="cls-25" x="126.96" y="367.64" width="4.49" height="2.85"/><rect class="cls-25" x="133.49" y="367.64" width="4.49" height="2.85"/><rect class="cls-25" x="140.02" y="367.64" width="4.49" height="2.85"/><rect class="cls-25" x="146.55" y="367.64" width="4.49" height="2.85"/><rect class="cls-25" x="153.08" y="367.64" width="4.49" height="2.85"/><rect class="cls-25" x="159.61" y="367.64" width="4.49" height="2.85"/><rect class="cls-25" x="166.14" y="367.64" width="4.49" height="2.85"/><rect class="cls-25" x="172.67" y="367.64" width="4.49" height="2.85"/><rect class="cls-25" x="179.2" y="367.64" width="4.49" height="2.85"/><rect class="cls-25" x="185.73" y="367.64" width="4.49" height="2.85"/><rect class="cls-25" x="192.26" y="367.64" width="4.49" height="2.85"/><rect class="cls-25" x="198.79" y="367.64" width="4.49" height="2.85"/><rect class="cls-25" x="205.32" y="367.64" width="4.49" height="2.85"/><polygon class="cls-25" points="218.5 370.5 211.85 370.5 211.85 367.64 217.86 367.64 218.5 370.5"/><polygon class="cls-25" points="115.61 377.56 114.84 380.94 120.97 380.94 120.97 377.56 115.61 377.56"/><rect class="cls-25" x="123.72" y="377.56" width="4.81" height="3.38"/><rect class="cls-25" x="131.09" y="377.56" width="4.81" height="3.38"/><rect class="cls-25" x="138.46" y="377.56" width="4.81" height="3.38"/><rect class="cls-25" x="185.68" y="377.56" width="4.81" height="3.38"/><rect class="cls-25" x="192.99" y="377.56" width="4.81" height="3.38"/><rect class="cls-25" x="200.3" y="377.56" width="4.81" height="3.38"/><rect class="cls-25" x="207.61" y="377.56" width="4.81" height="3.38"/><polygon class="cls-25" points="220.85 380.94 214.93 380.94 214.93 377.56 220.09 377.56 220.85 380.94"/><rect class="cls-25" x="145.82" y="377.56" width="37.35" height="3.38"/><rect class="cls-25" x="126.13" y="372.46" width="5.33" height="3.13"/><rect class="cls-25" x="133.96" y="372.46" width="5.33" height="3.13"/><rect class="cls-25" x="141.8" y="372.46" width="5.33" height="3.13"/><rect class="cls-25" x="149.63" y="372.46" width="5.33" height="3.13"/><rect class="cls-25" x="157.47" y="372.46" width="5.33" height="3.13"/><rect class="cls-25" x="165.3" y="372.46" width="5.33" height="3.13"/><rect class="cls-25" x="173.14" y="372.46" width="5.33" height="3.13"/><rect class="cls-25" x="180.98" y="372.46" width="5.33" height="3.13"/><rect class="cls-25" x="188.81" y="372.46" width="5.33" height="3.13"/><rect class="cls-25" x="196.65" y="372.46" width="5.33" height="3.13"/><rect class="cls-25" x="204.48" y="372.46" width="5.33" height="3.13"/><polygon class="cls-25" points="219.65 375.6 212.32 375.6 212.32 372.46 218.94 372.46 219.65 375.6"/><rect class="cls-26" x="117.87" y="298.96" width="100.21" height="51.27"/></g></svg>