<svg xmlns="http://www.w3.org/2000/svg" viewBox="0 0 800 520"><defs><style>.cls-1{fill:#fff;}.cls-2,.cls-5,.cls-7{fill:none;stroke-miterlimit:10;stroke-width:2px;}.cls-2{stroke:#3341ff;}.cls-3{fill:#3341ff;}.cls-4{font-size:24.59px;fill:#4d4d4d;font-family:Arial-BoldMT, Arial;font-weight:700;}.cls-5{stroke:#ff8533;}.cls-6{fill:#ff8533;}.cls-7{stroke:#ffba00;}.cls-8{fill:#ffba00;}</style></defs><title>3</title><g id="Camada_2" data-name="Camada 2"><rect class="cls-1" width="800" height="520"/><path class="cls-2" d="M262.49,410.4H84.83a16.74,16.74,0,0,1-16.75-16.75V276.76L83.58,260l-15.5-16.76V126.35A16.74,16.74,0,0,1,84.83,109.6H262.49a16.74,16.74,0,0,1,16.75,16.75v267.3A16.74,16.74,0,0,1,262.49,410.4Z"/><polygon class="cls-3" points="61.04 276.76 61.04 243.24 77.34 260 61.04 276.76"/><text class="cls-4" transform="translate(141.54 266.45)">Inline</text><path class="cls-5" d="M492.35,410.4H314.69a16.74,16.74,0,0,1-16.75-16.75V276.76L313.44,260l-15.5-16.76V126.35a16.74,16.74,0,0,1,16.75-16.75H492.35a16.74,16.74,0,0,1,16.75,16.75v267.3A16.74,16.74,0,0,1,492.35,410.4Z"/><polygon class="cls-6" points="290.9 276.76 290.9 243.24 307.2 260 290.9 276.76"/><text class="cls-4" transform="translate(361.85 266.45)">Interno</text><path class="cls-7" d="M722.21,410.4H544.55a16.74,16.74,0,0,1-16.75-16.75V276.76L543.3,260l-15.5-16.76V126.35a16.74,16.74,0,0,1,16.75-16.75H722.21A16.74,16.74,0,0,1,739,126.35v267.3A16.74,16.74,0,0,1,722.21,410.4Z"/><polygon class="cls-8" points="520.76 276.76 520.76 243.24 537.06 260 520.76 276.76"/><text class="cls-4" transform="translate(587.6 266.45)">Externo</text></g></svg>