<svg id="Camada_1" data-name="Camada 1" xmlns="http://www.w3.org/2000/svg" viewBox="0 0 800 520"><defs><style>.cls-1,.cls-5{fill:#fff;}.cls-2,.cls-3{fill:none;stroke:#e6e6e6;stroke-miterlimit:10;stroke-width:2px;}.cls-3{stroke-dasharray:5.07 5.07;}.cls-4{fill:#3341ff;}.cls-12,.cls-5{font-size:61.62px;}.cls-12,.cls-5,.cls-9{font-family:Arial-BoldMT, Arial;}.cls-12,.cls-5,.cls-7,.cls-9{font-weight:700;}.cls-6{letter-spacing:-0.02em;}.cls-7{font-size:17.97px;font-family:Arial-BoldItalicMT, Arial;font-style:italic;}.cls-12,.cls-7{fill:#4d4d4d;}.cls-8{font-size:13px;fill:gray;font-family:ArialMT, Arial;}.cls-9{font-size:14px;fill:#ff3385;}.cls-10{fill:#ff8533;}.cls-11{fill:#ffd666;}.cls-13{letter-spacing:-0.04em;}</style></defs><title>3</title><rect class="cls-1" width="800" height="520"/><path class="cls-2" d="M151.22,385.06h82.91a25.51,25.51,0,0,0,25.51-25.51V97.06H68.31a25.51,25.51,0,0,0-25.51,25.5V371.23"/><line class="cls-2" x1="70.22" y1="385.06" x2="72.72" y2="385.06"/><line class="cls-3" x1="77.79" y1="385.06" x2="146.19" y2="385.06"/><line class="cls-2" x1="148.72" y1="385.06" x2="151.22" y2="385.06"/><circle class="cls-4" cx="42.8" cy="385.06" r="7.05"/><circle class="cls-2" cx="42.8" cy="385.06" r="13.82"/><rect class="cls-4" x="52.64" y="109.6" width="197.15" height="111.95" rx="12.52"/><text class="cls-5" transform="translate(124.39 189.44)">I<tspan class="cls-6" x="17.12" y="0">L</tspan></text><text class="cls-7" transform="translate(106.78 256.81)">CSS Inline</text><text class="cls-8" transform="translate(67.76 291.82)">As regras de formatação são<tspan x="1.44" y="15.6">inseridas diretamente na tag</tspan><tspan x="14.8" y="31.2">e se aplicam apenas ao</tspan><tspan x="27.82" y="46.8">elemento marcado.</tspan></text><text class="cls-9" transform="translate(121.65 417.67)">Não use!</text><path class="cls-2" d="M406.91,385.06h82.91a25.51,25.51,0,0,0,25.51-25.51V97.06H324a25.5,25.5,0,0,0-25.5,25.5V371.23"/><line class="cls-2" x1="325.91" y1="385.06" x2="328.41" y2="385.06"/><line class="cls-3" x1="333.48" y1="385.06" x2="401.88" y2="385.06"/><line class="cls-2" x1="404.41" y1="385.06" x2="406.91" y2="385.06"/><circle class="cls-10" cx="298.5" cy="385.06" r="7.05"/><circle class="cls-2" cx="298.5" cy="385.06" r="13.82"/><rect class="cls-10" x="308.34" y="109.6" width="197.15" height="111.95" rx="12.52"/><text class="cls-5" transform="translate(376.1 189.44)">IN</text><text class="cls-7" transform="translate(355.49 256.81)">CSS Interno</text><text class="cls-8" transform="translate(323.45 291.82)">As regras de formatação são<tspan x="-3.63" y="15.6">inseridas na seção &lt;head&gt; da</tspan><tspan x="16.61" y="31.2">página e se aplicam ao</tspan><tspan x="29.98" y="46.8">documento inteiro.</tspan></text><text class="cls-9" transform="translate(315.49 417.67)">Use com muita moderação!</text><path class="cls-2" d="M662.6,385.06h82.92A25.51,25.51,0,0,0,771,359.55V97.06H579.69a25.5,25.5,0,0,0-25.5,25.5V371.23"/><line class="cls-2" x1="581.61" y1="385.06" x2="584.11" y2="385.06"/><line class="cls-3" x1="589.17" y1="385.06" x2="657.57" y2="385.06"/><line class="cls-2" x1="660.1" y1="385.06" x2="662.6" y2="385.06"/><circle class="cls-11" cx="554.19" cy="385.06" r="7.05"/><circle class="cls-2" cx="554.19" cy="385.06" r="13.82"/><rect class="cls-11" x="564.03" y="109.6" width="197.15" height="111.95" rx="12.52"/><text class="cls-12" transform="translate(621.5 189.44)">EX</text><text class="cls-7" transform="translate(608.17 256.81)">CSS Externo</text><text class="cls-8" transform="translate(579.14 291.82)">As regras de formatação são<tspan x="1.81" y="15.6">inseridas em um documento</tspan><tspan x="-9.88" y="31.2">separado do HTM</tspan><tspan class="cls-13" x="94.17" y="31.2">L</tspan><tspan x="100.92" y="31.2" xml:space="preserve"> e podem ser</tspan><tspan x="-0.37" y="46.8">utilizadas por várias páginas.</tspan></text><text class="cls-9" transform="translate(612.81 417.67)">Use à vontade!</text></svg>