<svg xmlns="http://www.w3.org/2000/svg" viewBox="0 0 800 722.33"><defs><style>.cls-1,.cls-3,.cls-7{fill:#fff;}.cls-2{fill:#303030;}.cls-3{font-size:15.93px;font-family:ArialMT, Arial;}.cls-4{letter-spacing:-0.06em;}.cls-5,.cls-8,.cls-9{fill:none;}.cls-5,.cls-7{stroke:#999;}.cls-5,.cls-7,.cls-8,.cls-9{stroke-miterlimit:10;}.cls-5,.cls-7,.cls-8{stroke-width:2.5px;}.cls-6{fill:#999;}.cls-8{stroke:#303030;stroke-dasharray:7 7;}.cls-9{stroke:gray;stroke-width:2px;stroke-dasharray:3;}</style></defs><title>4-vetores-1ano-Projeto-SI</title><g id="Layer_8" data-name="Layer 8"><rect class="cls-1" width="800" height="722.33"/><rect class="cls-2" x="264.18" y="146.7" width="161.28" height="56.67" rx="10" ry="10"/><rect class="cls-2" x="525.24" y="146.7" width="161.28" height="56.67" rx="10" ry="10"/><rect class="cls-2" x="525.24" y="230.69" width="161.28" height="56.67" rx="10" ry="10"/><rect class="cls-2" x="525.24" y="314.68" width="161.28" height="88.13" rx="10" ry="10"/><path class="cls-2" d="M246.87,247h124a10,10,0,0,1,10,10V303.7a0,0,0,0,1,0,0h-144a0,0,0,0,1,0,0V257A10,10,0,0,1,246.87,247Z"/><rect class="cls-2" x="236.87" y="310.75" width="144.02" height="56.67"/><path class="cls-2" d="M236.87,374.48h144a0,0,0,0,1,0,0v46.67a10,10,0,0,1-10,10h-124a10,10,0,0,1-10-10V374.48A0,0,0,0,1,236.87,374.48Z"/><rect class="cls-2" x="264.18" y="57.95" width="161.28" height="56.67" rx="10" ry="10"/><polygon class="cls-2" points="140.16 494.86 161.4 593.79 288.07 593.79 308.88 494.86 236.87 494.86 224.52 513.06 212.98 494.86 140.16 494.86"/><polygon class="cls-2" points="380.89 494.86 402.13 593.79 528.8 593.79 549.61 494.86 477.6 494.86 465.25 513.06 453.71 494.86 380.89 494.86"/><text class="cls-3" transform="translate(314.37 92.53)">Memória</text><text class="cls-3" transform="translate(277.42 180.13)">Controle de<tspan class="cls-4" x="82.35" y="0"> </tspan><tspan x="85.9" y="0">Acesso</tspan></text><text class="cls-3" transform="translate(564.73 169.3)">Registrador<tspan x="-22.13" y="19.11">de Instruções (IR)</tspan></text><text class="cls-3" transform="translate(546.13 254.4)">Decodificador de<tspan x="27.01" y="19.11">Instrução</tspan></text><text class="cls-3" transform="translate(553.21 354.11)">Unidade lógica<tspan x="13.28" y="19.11">de controle</tspan></text><text class="cls-3" transform="translate(398.85 535.9)">Unidade aritmética<tspan x="27.88" y="19.11">e lógica de</tspan><tspan x="13.7" y="38.23">ponto flutuante</tspan></text><text class="cls-3" transform="translate(158.12 537.03)">Unidade aritmética<tspan x="27.88" y="19.11">e lógica de</tspan><tspan x="40.73" y="38.23">inteiros</tspan></text><text class="cls-3" transform="translate(275.23 270.35)">Banco de<tspan x="-15.92" y="19.11">Registradores</tspan></text><text class="cls-3" transform="translate(296.68 346.22)">PC</text><text class="cls-3" transform="translate(266.38 407.58)">Acumulador</text><line class="cls-1" x1="344.58" y1="114.62" x2="345.01" y2="146.7"/><line class="cls-5" x1="344.68" y1="121.8" x2="345.01" y2="146.7"/><polygon class="cls-6" points="339.71 123.33 344.58 114.63 349.69 123.19 339.71 123.33"/><line class="cls-7" x1="224.52" y1="593.79" x2="224.52" y2="624.82"/><polyline class="cls-5" points="465.25 593.79 465.25 624.82 116.27 624.82 116.27 175.03 264.18 175.03"/><line class="cls-5" x1="425.46" y1="175.03" x2="518.07" y2="175.03"/><polygon class="cls-6" points="516.61 180.02 525.24 175.03 516.61 170.05 516.61 180.02"/><line class="cls-1" x1="603.62" y1="203.37" x2="603.62" y2="230.69"/><line class="cls-5" x1="603.62" y1="203.37" x2="603.62" y2="223.52"/><polygon class="cls-6" points="598.64 222.06 603.62 230.69 608.61 222.06 598.64 222.06"/><line class="cls-1" x1="603.62" y1="287.36" x2="603.62" y2="314.68"/><line class="cls-5" x1="603.62" y1="287.36" x2="603.62" y2="307.51"/><polygon class="cls-6" points="598.64 306.05 603.62 314.68 608.61 306.05 598.64 306.05"/><line class="cls-5" x1="308.88" y1="247.03" x2="308.88" y2="210.55"/><polygon class="cls-6" points="313.87 212 308.88 203.37 303.89 212 313.87 212"/><line class="cls-5" x1="271" y1="431.15" x2="271" y2="487.68"/><polygon class="cls-6" points="266.02 486.22 271 494.86 275.99 486.22 266.02 486.22"/><polyline class="cls-1" points="253.94 431.15 253.94 467.63 176.57 467.63 176.57 494.86"/><polyline class="cls-5" points="253.94 431.15 253.94 467.63 176.57 467.63 176.57 487.68"/><polygon class="cls-6" points="171.58 486.22 176.57 494.86 181.56 486.22 171.58 486.22"/><polyline class="cls-1" points="335.56 431.15 335.56 467.63 416.36 467.63 416.36 494.86"/><polyline class="cls-5" points="335.56 431.15 335.56 467.63 416.36 467.63 416.36 487.68"/><polygon class="cls-6" points="411.37 486.22 416.36 494.86 421.34 486.22 411.37 486.22"/><polyline class="cls-1" points="363.8 431.15 364.51 447.6 501.97 447.6 501.97 494.86"/><polyline class="cls-5" points="363.8 431.15 364.51 447.6 501.97 447.6 501.97 487.68"/><polygon class="cls-6" points="496.98 486.22 501.97 494.86 506.96 486.22 496.98 486.22"/><polyline class="cls-8" points="605.88 402.82 605.9 457.31 293.15 457.31 293.15 487.58"/><polygon class="cls-2" points="288.16 486.12 293.15 494.76 298.13 486.12 288.16 486.12"/><polyline class="cls-8" points="404.57 212.93 404.57 358.75 525.24 358.75"/><polygon class="cls-2" points="399.58 214.39 404.57 205.75 409.56 214.39 399.58 214.39"/><line class="cls-8" x1="532.69" y1="457.31" x2="532.69" y2="487.68"/><polygon class="cls-2" points="527.7 486.22 532.69 494.86 537.67 486.22 527.7 486.22"/><rect class="cls-9" x="77.3" y="130.66" width="645.39" height="533.72"/></g></svg>