<svg xmlns="http://www.w3.org/2000/svg" viewBox="0 0 800 722.33"><defs><style>.cls-1{fill:#fff;}.cls-12,.cls-2,.cls-3{fill:none;stroke-miterlimit:10;}.cls-2{stroke:#4d4d4d;}.cls-2,.cls-3{stroke-width:2px;}.cls-3{stroke:#999;}.cls-4{font-size:16.78px;}.cls-4,.cls-6,.cls-8{fill:#303030;}.cls-10,.cls-4,.cls-6,.cls-8{font-family:ArialMT, Arial;}.cls-5{letter-spacing:-0.04em;}.cls-10,.cls-6,.cls-8{font-size:18.21px;}.cls-10,.cls-6{letter-spacing:-0.06em;}.cls-7{letter-spacing:0em;}.cls-9{letter-spacing:-0.04em;}.cls-11{fill:#999;}.cls-12{stroke:#666;stroke-width:1.5px;}.cls-13{fill:#666;}</style></defs><title>4-vetores-1ano-Projeto-SI</title><g id="Layer_9" data-name="Layer 9"><rect class="cls-1" width="800" height="722.33"/><rect class="cls-2" x="144.64" y="71.24" width="274.52" height="210.09"/><line class="cls-2" x1="144.64" y1="99.26" x2="419.16" y2="99.26"/><line class="cls-2" x1="144.64" y1="124.47" x2="419.16" y2="124.47"/><line class="cls-2" x1="144.64" y1="148.28" x2="419.16" y2="148.28"/><line class="cls-2" x1="144.64" y1="174.89" x2="419.16" y2="174.89"/><line class="cls-2" x1="144.64" y1="201.5" x2="419.16" y2="201.5"/><line class="cls-2" x1="144.64" y1="228.11" x2="419.16" y2="228.11"/><line class="cls-2" x1="144.64" y1="256.12" x2="419.16" y2="256.12"/><path class="cls-3" d="M426.52,71.24A8.76,8.76,0,0,1,435.27,80v91.39l7,6.3-7,5.6v89.29a8.75,8.75,0,0,1-8.75,8.75"/><text class="cls-4" transform="translate(449.87 182.96)">Registradores</text><text class="cls-4" transform="translate(489.54 357.36)">Registrador de entrada da UA<tspan class="cls-5" x="222.92" y="0">L</tspan></text><text class="cls-4" transform="translate(447.05 397.88)">Barramento de entrada da UA<tspan class="cls-5" x="223.85" y="0">L</tspan></text><text class="cls-4" transform="translate(441.64 599.26)">Registrador de saída da UA<tspan class="cls-5" x="207.06" y="0">L</tspan></text><text class="cls-6" transform="translate(263.39 92.25)">A<tspan class="cls-7" x="11.14" y="0" xml:space="preserve"> + B</tspan></text><text class="cls-6" transform="translate(278.43 168.58)">A</text><text class="cls-8" transform="translate(277.93 221.81)">B</text><text class="cls-6" transform="translate(166.74 356.96)">A</text><text class="cls-8" transform="translate(264.53 501.23)">UA<tspan class="cls-9" x="25.29" y="0">L</tspan></text><text class="cls-10" transform="translate(259.89 599.97)">A<tspan class="cls-7" x="11.14" y="0" xml:space="preserve"> + B</tspan></text><text class="cls-8" transform="translate(385.43 356.96)">B</text><rect class="cls-2" x="118.73" y="333.86" width="107.15" height="33.61"/><rect class="cls-2" x="337.93" y="333.86" width="107.15" height="33.61"/><polygon class="cls-2" points="118.73 420.69 225.88 420.69 251.09 468.31 312.72 468.31 337.93 420.69 445.07 420.69 387.65 527.14 176.86 527.14 118.73 420.69"/><rect class="cls-2" x="173.71" y="577.56" width="215.34" height="32.21"/><line class="cls-3" x1="172.31" y1="281.33" x2="172.31" y2="328.11"/><polygon class="cls-11" points="168.32 326.95 172.31 333.86 176.29 326.95 168.32 326.95"/><line class="cls-3" x1="391.5" y1="281.33" x2="391.5" y2="328.11"/><polygon class="cls-11" points="387.51 326.95 391.5 333.86 395.49 326.95 387.51 326.95"/><line class="cls-3" x1="391.5" y1="367.47" x2="391.5" y2="414.25"/><polygon class="cls-11" points="387.51 413.08 391.5 419.99 395.49 413.08 387.51 413.08"/><line class="cls-3" x1="172.31" y1="367.47" x2="172.31" y2="414.25"/><polygon class="cls-11" points="168.32 413.08 172.31 419.99 176.29 413.08 168.32 413.08"/><line class="cls-3" x1="281.2" y1="527.14" x2="281.2" y2="571.82"/><polygon class="cls-11" points="277.21 570.65 281.2 577.56 285.19 570.65 277.21 570.65"/><polyline class="cls-3" points="281.2 609.77 281.2 651.09 78.82 651.09 78.82 85.25 138.9 85.25"/><polygon class="cls-11" points="137.74 89.24 144.64 85.25 137.74 81.26 137.74 89.24"/><line class="cls-12" x1="485.21" y1="351.06" x2="457.78" y2="350.72"/><polygon class="cls-13" points="458.69 347.74 453.48 350.66 458.62 353.72 458.69 347.74"/><line class="cls-12" x1="441.87" y1="393.68" x2="405.26" y2="393.73"/><polygon class="cls-13" points="406.13 390.73 400.95 393.73 406.14 396.72 406.13 390.73"/><line class="cls-12" x1="436.47" y1="594.36" x2="402.46" y2="593.74"/><polygon class="cls-13" points="403.39 590.77 398.15 593.67 403.28 596.75 403.39 590.77"/></g></svg>