<svg xmlns="http://www.w3.org/2000/svg" viewBox="0 0 800 660.47"><defs><style>.cls-1,.cls-4{fill:#fff;}.cls-2,.cls-5{fill:none;stroke-miterlimit:10;}.cls-2{stroke:#ccc;stroke-width:3px;}.cls-3{fill:#303030;}.cls-4{font-size:19.84px;font-family:ArialMT, Arial;}.cls-5{stroke:#999;stroke-width:2.5px;}.cls-6{fill:#999;}</style></defs><title>4-vetores-1ano-Projeto-SI</title><g id="Layer_7" data-name="Layer 7"><rect class="cls-1" x="0.34" width="799.32" height="660.47"/><rect class="cls-2" x="173.66" y="155.93" width="452.68" height="452.68"/><rect class="cls-3" x="307.54" y="51.86" width="183.26" height="73.89" rx="10" ry="10"/><text class="cls-4" transform="translate(361.22 82.17)">Mem贸ria<tspan x="0" y="23.8">Principal</tspan></text><rect class="cls-3" x="307.54" y="187.68" width="183.26" height="73.89" rx="10" ry="10"/><text class="cls-4" transform="translate(329.24 219.19)">Mem贸ria Cache<tspan x="27.55" y="23.8">de Dados</tspan></text><rect class="cls-3" x="307.54" y="504.54" width="183.26" height="73.89" rx="10" ry="10"/><text class="cls-4" transform="translate(378.3 547.75)">CPU</text><rect class="cls-3" x="204.97" y="347.3" width="183.26" height="73.89" rx="10" ry="10"/><text class="cls-4" transform="translate(225.53 378.81)">Mem贸ria Cache<tspan x="13.77" y="23.8">de programa</tspan></text><rect class="cls-3" x="412" y="347.3" width="183.26" height="73.89" rx="10" ry="10"/><text class="cls-4" transform="translate(433.76 378.81)">Mem贸ria Cache<tspan x="29.19" y="23.8">de dados</tspan></text><line class="cls-5" x1="399.17" y1="134.72" x2="399.17" y2="178.71"/><polygon class="cls-6" points="392.94 136.54 399.17 125.75 405.4 136.54 392.94 136.54"/><polygon class="cls-6" points="392.94 176.89 399.17 187.68 405.4 176.89 392.94 176.89"/><polyline class="cls-1" points="295.54 347.3 295.54 305.41 371.61 305.41 371.61 262.96"/><polyline class="cls-5" points="295.54 338.33 295.54 305.41 371.61 305.41 371.61 271.94"/><polygon class="cls-6" points="301.77 336.5 295.54 347.3 289.3 336.5 301.77 336.5"/><polygon class="cls-6" points="377.84 273.76 371.61 262.96 365.38 273.76 377.84 273.76"/><polyline class="cls-1" points="371.61 504.93 371.61 463.04 295.54 463.04 295.54 420.6"/><polyline class="cls-5" points="371.61 495.96 371.61 463.04 295.54 463.04 295.54 429.57"/><polygon class="cls-6" points="377.84 494.14 371.61 504.93 365.38 494.14 377.84 494.14"/><polygon class="cls-6" points="301.77 431.39 295.54 420.6 289.3 431.39 301.77 431.39"/><polyline class="cls-1" points="426.63 504.93 426.63 463.04 502.7 463.04 502.7 420.6"/><polyline class="cls-5" points="426.63 495.96 426.63 463.04 502.7 463.04 502.7 429.57"/><polygon class="cls-6" points="432.86 494.14 426.63 504.93 420.4 494.14 432.86 494.14"/><polygon class="cls-6" points="508.93 431.39 502.7 420.6 496.47 431.39 508.93 431.39"/><polyline class="cls-1" points="428.71 264.15 428.71 308.43 504.78 308.43 504.78 347.3"/><polyline class="cls-5" points="428.71 273.13 428.71 308.43 504.78 308.43 504.78 338.33"/><polygon class="cls-6" points="422.48 274.95 428.71 264.15 434.94 274.95 422.48 274.95"/><polygon class="cls-6" points="498.55 336.5 504.78 347.3 511.01 336.5 498.55 336.5"/></g></svg>